<svg width="89" height="89" viewBox="0 0 89 89" fill="none" xmlns="http://www.w3.org/2000/svg">
<g id="icons8-twitterx 1">
<path id="Vector" d="M19.5801 7.12C12.6986 7.12 7.12012 12.6985 7.12012 19.58V69.42C7.12012 76.3015 12.6986 81.88 19.5801 81.88H69.4201C76.3016 81.88 81.8801 76.3015 81.8801 69.42V19.58C81.8801 12.6985 76.3016 7.12 69.4201 7.12H19.5801ZM23.2931 23.14H37.4218L47.4552 37.3974L59.6301 23.14H64.0801L49.4646 40.2516L67.4872 65.86H53.3619L41.7189 49.3185L27.5901 65.86H23.1401L39.7094 46.4643L23.2931 23.14ZM30.1071 26.7L55.2184 62.3H60.6731L35.5619 26.7H30.1071Z" fill="#545352"/>
</g>
</svg>
