<svg width="89" height="89" viewBox="0 0 89 89" fill="none" xmlns="http://www.w3.org/2000/svg">
<g id="icons8-instagram 1">
<path id="Vector" d="M28.4801 5.33997C15.7175 5.33997 5.34009 15.7174 5.34009 28.48V60.52C5.34009 73.2826 15.7175 83.66 28.4801 83.66H60.5201C73.2827 83.66 83.6601 73.2826 83.6601 60.52V28.48C83.6601 15.7174 73.2827 5.33997 60.5201 5.33997H28.4801ZM65.8601 19.58C67.8181 19.58 69.4201 21.182 69.4201 23.14C69.4201 25.098 67.8181 26.7 65.8601 26.7C63.9021 26.7 62.3001 25.098 62.3001 23.14C62.3001 21.182 63.9021 19.58 65.8601 19.58ZM44.5001 24.92C55.3047 24.92 64.0801 33.6954 64.0801 44.5C64.0801 55.3046 55.3047 64.08 44.5001 64.08C33.6955 64.08 24.9201 55.3046 24.9201 44.5C24.9201 33.6954 33.6955 24.92 44.5001 24.92ZM44.5001 28.48C35.6713 28.48 28.4801 35.6712 28.4801 44.5C28.4801 53.3288 35.6713 60.52 44.5001 60.52C53.3289 60.52 60.5201 53.3288 60.5201 44.5C60.5201 35.6712 53.3289 28.48 44.5001 28.48Z" fill="#545352"/>
</g>
</svg>
